<svg width="168" height="36" viewBox="0 0 168 36" fill="none" xmlns="http://www.w3.org/2000/svg">
<path d="M134.803 32.9069L132.356 26.9464H133.403L134.791 30.4816C135.004 31.0093 135.189 31.5467 135.344 32.0916H135.391C135.505 31.6874 135.641 31.289 135.8 30.8978C136.029 30.2938 136.544 28.9767 137.344 26.9464H138.391L135.944 32.9069H134.803ZM147.439 26.827C147.46 27.2811 147.295 27.7257 146.977 28.0728C146.63 28.4157 146.17 28.6433 145.668 28.7202V28.7638C146.241 28.7952 146.785 29.0107 147.204 29.373C147.547 29.7229 147.727 30.1837 147.705 30.6556C147.725 30.9889 147.658 31.3218 147.509 31.6261C147.361 31.9304 147.135 32.1972 146.852 32.4041C146.14 32.8516 145.288 33.0676 144.429 33.0181C144.01 33.0208 143.591 32.9888 143.178 32.9226C142.796 32.858 142.425 32.7455 142.075 32.5883V31.7267C142.454 31.8992 142.854 32.0297 143.266 32.1155C143.658 32.2022 144.06 32.248 144.463 32.2519C145.949 32.2519 146.693 31.7135 146.693 30.6365C146.693 29.6718 145.873 29.1895 144.234 29.1895H143.386V28.4118H144.245C144.81 28.4406 145.37 28.2968 145.839 28.0025C146.03 27.8717 146.184 27.6994 146.287 27.5008C146.39 27.3022 146.439 27.0832 146.429 26.8632C146.438 26.6904 146.404 26.5181 146.329 26.3597C146.254 26.2012 146.14 26.0609 145.997 25.9497C145.66 25.7143 145.245 25.5968 144.823 25.6182C144.463 25.616 144.104 25.6636 143.758 25.7594C143.354 25.8853 142.97 26.0609 142.617 26.2813L142.122 25.6721C142.489 25.4077 142.902 25.2026 143.343 25.0656C143.812 24.9175 144.304 24.843 144.799 24.8452C145.495 24.8053 146.185 24.993 146.746 25.3753C146.975 25.5515 147.157 25.7743 147.277 26.0261C147.397 26.2779 147.453 26.5521 147.439 26.827ZM149.304 32.3311C149.289 32.1328 149.352 31.9361 149.483 31.7785C149.549 31.714 149.63 31.6637 149.719 31.6312C149.808 31.5988 149.904 31.585 150 31.5909C150.098 31.5857 150.196 31.5997 150.288 31.6321C150.379 31.6644 150.463 31.7143 150.532 31.7785C150.67 31.9328 150.739 32.1305 150.723 32.3304C150.738 32.5288 150.668 32.7246 150.529 32.8762C150.39 32.9952 150.209 33.0628 150.02 33.0664C149.831 33.0699 149.647 33.009 149.503 32.8953C149.429 32.8187 149.374 32.7291 149.34 32.6319C149.306 32.5347 149.294 32.4321 149.304 32.3304V32.3311ZM157.905 28.9201C157.981 29.9864 157.738 31.0515 157.202 31.9982C156.974 32.33 156.655 32.5994 156.277 32.7783C155.899 32.9572 155.475 33.0391 155.051 33.0153C154.631 33.032 154.213 32.9442 153.841 32.761C153.47 32.5778 153.159 32.3059 152.939 31.9736C152.394 31.0382 152.144 29.9804 152.215 28.9201C152.137 27.8522 152.379 26.785 152.916 25.8365C153.142 25.5078 153.46 25.2412 153.835 25.0642C154.211 24.8873 154.631 24.8065 155.051 24.8302C155.475 24.8131 155.896 24.9015 156.27 25.0862C156.644 25.2709 156.958 25.5451 157.178 25.8801C157.723 26.811 157.975 27.8643 157.905 28.9207V28.9201ZM153.204 28.9201C153.148 29.7814 153.299 30.6435 153.647 31.4442C153.77 31.6903 153.969 31.8969 154.219 32.0379C154.47 32.1788 154.76 32.2476 155.053 32.2356C155.348 32.2485 155.641 32.1792 155.893 32.0366C156.145 31.8941 156.345 31.6848 156.467 31.436C156.81 30.6374 156.96 29.7787 156.905 28.9207C156.96 28.0645 156.811 27.2075 156.467 26.4109C156.344 26.1625 156.144 25.9538 155.892 25.8117C155.639 25.6697 155.347 25.6008 155.052 25.6141C154.76 25.6014 154.47 25.6694 154.22 25.8093C153.969 25.9492 153.769 26.1548 153.646 26.4C153.297 27.1994 153.147 28.0606 153.205 28.9207L153.204 28.9201ZM159.399 32.3311C159.383 32.1327 159.447 31.936 159.579 31.7785C159.644 31.714 159.725 31.6637 159.814 31.6312C159.903 31.5988 159.999 31.585 160.095 31.5909C160.193 31.5857 160.291 31.5997 160.383 31.6321C160.475 31.6644 160.558 31.7143 160.627 31.7785C160.766 31.9328 160.834 32.1305 160.818 32.3304C160.833 32.5288 160.763 32.7246 160.624 32.8762C160.485 32.9952 160.304 33.0628 160.115 33.0664C159.926 33.0699 159.742 33.009 159.598 32.8953C159.525 32.8187 159.469 32.7291 159.435 32.6319C159.401 32.5347 159.389 32.4321 159.399 32.3304L159.399 32.3311ZM167.999 28.9201C168.076 29.9864 167.832 31.0515 167.296 31.9982C167.069 32.33 166.749 32.5994 166.371 32.7783C165.993 32.9572 165.57 33.0391 165.146 33.0153C164.725 33.032 164.307 32.9442 163.936 32.761C163.564 32.5778 163.253 32.3059 163.034 31.9736C162.489 31.0382 162.238 29.9804 162.31 28.9201C162.231 27.8522 162.474 26.785 163.01 25.8365C163.237 25.5078 163.554 25.2412 163.93 25.0642C164.305 24.8873 164.725 24.8065 165.146 24.8302C165.569 24.8131 165.99 24.9015 166.364 25.0862C166.739 25.2709 167.052 25.5451 167.272 25.8801C167.817 26.8111 168.068 27.8644 167.999 28.9207L167.999 28.9201ZM163.299 28.9201C163.242 29.7814 163.393 30.6435 163.741 31.4442C163.864 31.6903 164.064 31.8969 164.314 32.0379C164.564 32.1788 164.854 32.2476 165.147 32.2356C165.442 32.2486 165.735 32.1794 165.987 32.0368C166.24 31.8943 166.44 31.685 166.562 31.436C166.905 30.6374 167.055 29.7787 167 28.9207C167.056 28.0645 166.906 27.2075 166.562 26.4109C166.439 26.1625 166.239 25.9538 165.987 25.8117C165.735 25.6697 165.442 25.6008 165.147 25.6141C164.855 25.6014 164.565 25.6694 164.315 25.8093C164.064 25.9492 163.864 26.1548 163.741 26.4C163.392 27.1994 163.241 28.0606 163.299 28.9207L163.299 28.9201Z" fill="#CAC7E2"/>
<path fill-rule="evenodd" clip-rule="evenodd" d="M2.67284 36H3.19383C4.99361 35.9969 6.77477 35.663 8.43373 35.0178C10.0927 34.3726 11.5964 33.429 12.8573 32.2417C14.2576 32.5899 15.7013 32.7663 17.1514 32.7663C19.4334 32.7293 21.6851 32.2771 23.778 31.4354C25.8709 30.5938 27.764 29.3793 29.3491 27.8612C30.9342 26.3431 32.1803 24.5512 33.0162 22.5879C33.8521 20.6246 34.2615 18.5283 34.2209 16.4186C34.2697 14.3036 33.8666 12.2005 33.0346 10.2297C32.2026 8.25899 30.958 6.45942 29.3723 4.93416C27.7866 3.4089 25.8908 2.18793 23.7937 1.34123C21.6966 0.494528 19.4394 0.0387443 17.1514 0C14.8568 0.0294058 12.5912 0.478308 10.4851 1.32084C8.37899 2.16337 6.47407 3.38287 4.8801 4.90907C3.28613 6.43527 2.03463 8.23798 1.1977 10.2133C0.360768 12.1887 -0.0450344 14.2976 0.00367447 16.4186C-0.00463983 19.0712 0.67819 21.6866 1.99441 24.0435C3.31062 26.4005 5.22151 28.4298 7.56544 29.9597C6.60355 32.3696 4.9035 34.4684 2.67284 36ZM12.1454 5.00286C13.7268 4.36734 15.4281 4.02603 17.1521 3.99841C18.8762 4.02612 20.5774 4.36749 22.1587 5.00304C23.74 5.63859 25.1704 6.55587 26.3683 7.70249C27.5661 8.84912 28.5079 10.2026 29.1399 11.6857C29.7718 13.1689 30.0816 14.7525 30.0515 16.3463V16.4146C30.0928 19.6217 28.7592 22.7136 26.3421 25.0145C23.9251 27.3155 20.6211 28.6384 17.1521 28.6943C15.4281 28.6666 13.7268 28.3253 12.1454 27.6898C10.5641 27.0543 9.13364 26.137 7.93579 24.9904C6.73794 23.8437 5.79616 22.4902 5.16422 21.007C4.53229 19.5239 4.22258 17.9402 4.25279 16.3463C4.22258 14.7525 4.53229 13.1688 5.16422 11.6856C5.79616 10.2025 6.73794 8.84894 7.93579 7.7023C9.13364 6.55566 10.5641 5.63838 12.1454 5.00286ZM15.4802 10.1805H19.4216V21.6368H15.4802V10.1805ZM20.863 15.9083H24.8044V21.6368H20.863V15.9083ZM13.8383 12.9312H10.2341V21.6511H13.8383V12.9312Z" fill="url(#paint0_linear_7366_10269)"/>
<path d="M40.6213 16.6425V15.306H43.154V14.5645H40.6213V13.3037H43.4764V12.5492H39.6472V17.3977H43.5812V16.6425H40.6213ZM52.2233 17.3977L52.216 12.5485H51.4175L49.3719 15.7631L47.2894 12.5492H46.4873V17.3977H47.4163V14.2254L49.1395 16.8437H49.5741L51.2972 14.1831L51.3046 17.397L52.2233 17.3977ZM57.617 12.5485H55.4629V17.3977H56.437V15.9985H57.6178C58.9962 15.9985 59.8508 15.3401 59.8508 14.2738C59.8508 13.2076 58.9999 12.5492 57.6207 12.5492L57.617 12.5485ZM57.572 15.2364H56.437V13.3106H57.5757C58.4302 13.3106 58.8723 13.6639 58.8723 14.2732C58.8723 14.8824 58.4302 15.2364 57.5757 15.2364H57.572ZM62.6439 17.3977H66.3602V16.6356H63.6217V12.5492H62.6476L62.6439 17.3977ZM71.3045 17.4659C71.6698 17.4839 72.0353 17.4327 72.3784 17.3153C72.7215 17.198 73.035 17.0169 73.2996 16.7833C73.5643 16.5498 73.7744 16.2686 73.9171 15.9572C74.0597 15.6458 74.132 15.3106 74.1294 14.9724C74.1319 14.6346 74.0597 14.2999 73.9172 13.9889C73.7747 13.6778 73.565 13.3969 73.3009 13.1635C73.0368 12.9301 72.7238 12.749 72.3813 12.6314C72.0388 12.5138 71.6738 12.4622 71.3089 12.4796C70.9437 12.4622 70.5785 12.5138 70.2357 12.6314C69.8929 12.749 69.5796 12.9301 69.3152 13.1635C69.0507 13.397 68.8406 13.6779 68.6977 13.989C68.5547 14.3002 68.4821 14.6351 68.4841 14.9731C68.482 15.3112 68.5546 15.6461 68.6974 15.9574C68.8403 16.2686 69.0504 16.5496 69.3149 16.7831C69.5794 17.0166 69.8927 17.1978 70.2355 17.3154C70.5784 17.433 70.9437 17.4847 71.3089 17.4672L71.3045 17.4659ZM71.3045 16.6759C71.0601 16.6833 70.8166 16.6442 70.5891 16.5611C70.3617 16.4781 70.1551 16.3527 69.9822 16.1928C69.8092 16.033 69.6736 15.842 69.5837 15.6317C69.4939 15.4214 69.4516 15.1963 69.4596 14.9704C69.4516 14.7444 69.4939 14.5193 69.5837 14.309C69.6736 14.0988 69.8092 13.9078 69.9822 13.7479C70.1551 13.5881 70.3617 13.4627 70.5891 13.3796C70.8166 13.2965 71.0601 13.2575 71.3045 13.2649C71.5489 13.2575 71.7924 13.2965 72.0199 13.3796C72.2473 13.4627 72.4539 13.5881 72.6268 13.7479C72.7998 13.9078 72.9354 14.0988 73.0252 14.309C73.1151 14.5193 73.1574 14.7444 73.1494 14.9704C73.1575 15.1961 73.1156 15.421 73.0261 15.6311C72.9365 15.8413 72.8014 16.0322 72.6289 16.1922C72.4564 16.3521 72.2503 16.4777 72.0233 16.5611C71.7962 16.6446 71.5531 16.6841 71.3089 16.6773L71.3045 16.6759ZM81.0771 12.5492H80.1178L78.5681 14.911L77.0325 12.5492H75.9905L78.0516 15.701V17.3977H79.0257V15.6867L81.0771 12.5492ZM84.4333 16.6425V15.306H86.966V14.5645H84.4341V13.3037H87.2892V12.5492H83.46V17.3977H87.394V16.6425H84.4333ZM91.2734 16.6425V15.306H93.8068V14.5645H91.2741V13.3037H94.1293V12.5492H90.3015V17.3977H94.2355V16.6425H91.2734ZM102.092 17.3977H103.068V13.3106H104.807V12.5492H100.354V13.3112H102.092V17.3977ZM107.359 17.3977H108.333V12.5492H107.359V17.3977ZM117.309 17.3977L117.302 12.5485H116.499L114.454 15.7631L112.371 12.5492H111.568V17.3977H112.498V14.2254L114.221 16.8437H114.655L116.378 14.1831L116.386 17.397L117.309 17.3977ZM121.517 16.6425V15.306H124.049V14.5645H121.517V13.3037H124.372V12.5492H120.543V17.3977H124.477V16.6425H121.517Z" fill="#8F7FFF"/>
<path d="M47.9727 32.9274L45.9559 30.2552C46.521 30.0496 47.0027 29.6864 47.3343 29.2161C47.6658 28.7457 47.8307 28.1916 47.8059 27.6307C47.8059 25.7663 46.3027 24.6147 43.9007 24.6147H40.0117V32.9274H42.0927V30.6113H44.0033L45.7375 32.9274H47.9727ZM45.6991 27.6307C45.6991 28.5333 45.0571 29.0797 43.7849 29.0797H42.0876V26.1824H43.7849C45.0571 26.1824 45.6991 26.7166 45.6991 27.6307ZM52.2668 31.3829V29.459H56.4414V27.9637H52.2676V26.1585H56.9949V24.6147H50.1991V32.9274H57.1617V31.3835L52.2668 31.3829ZM63.4601 24.6147H59.5674V32.9274H61.6484V30.6352H63.4593C65.8613 30.6352 67.3645 29.4836 67.3645 27.6335C67.3645 25.7663 65.8621 24.6147 63.4601 24.6147ZM63.3442 29.0675H61.6469V26.1817H63.3442C64.6157 26.1817 65.2584 26.7159 65.2584 27.6307C65.2584 28.5333 64.6157 29.0675 63.3442 29.0675ZM74.074 33.0693C76.8996 33.0693 78.9939 31.2526 78.9939 28.7714C78.9939 26.2902 76.9003 24.4735 74.074 24.4735C71.2351 24.4735 69.1541 26.3025 69.1541 28.7714C69.1541 31.2403 71.2358 33.0693 74.074 33.0693ZM74.074 31.432C73.6963 31.4413 73.3205 31.3785 72.9703 31.2473C72.6201 31.1161 72.303 30.9194 72.0389 30.6696C71.7748 30.4198 71.5694 30.1223 71.4355 29.7956C71.3016 29.469 71.2422 29.1203 71.2609 28.7714C71.2422 28.4225 71.3016 28.0738 71.4355 27.7472C71.5694 27.4205 71.7748 27.123 72.0389 26.8732C72.303 26.6234 72.6201 26.4267 72.9703 26.2955C73.3205 26.1643 73.6963 26.1014 74.074 26.1108C74.4517 26.1014 74.8274 26.1643 75.1776 26.2955C75.5278 26.4267 75.8449 26.6234 76.109 26.8732C76.3731 27.123 76.5786 27.4205 76.7125 27.7472C76.8463 28.0738 76.9058 28.4225 76.887 28.7714C76.9056 29.1202 76.846 29.4687 76.712 29.7952C76.578 30.1217 76.3726 30.4191 76.1085 30.6687C75.8444 30.9184 75.5273 31.1149 75.1773 31.246C74.8272 31.3771 74.4516 31.44 74.074 31.4306V31.432ZM89.2757 32.9281L87.2574 30.2552C87.8225 30.0496 88.3043 29.6864 88.6358 29.2161C88.9673 28.7457 89.1322 28.1916 89.1075 27.6307C89.1075 25.7663 87.6043 24.6147 85.2023 24.6147H81.3103V32.9274H83.3913V30.6113H85.3056L87.0397 32.9267L89.2757 32.9281ZM87.0006 27.6307C87.0006 28.5333 86.3586 29.0797 85.0864 29.0797H83.3891V26.1824H85.0864C86.3586 26.1824 87.0006 26.7166 87.0006 27.6307ZM93.2348 32.9274H95.3158V26.1824H98.1939V24.6133H90.3576V26.1824H93.2356L93.2348 32.9274ZM100.06 32.9274H102.141V24.6147H100.06V32.9274ZM111.214 24.6147V29.663L106.744 24.6147H105.025V32.9274H107.08V27.8791L111.563 32.9274H113.272V24.6147H111.214ZM122.227 31.0745C121.729 31.3189 121.172 31.4415 120.608 31.4306C120.223 31.4489 119.839 31.3928 119.478 31.2661C119.118 31.1393 118.791 30.9445 118.516 30.6942C118.242 30.4439 118.027 30.1436 117.885 29.8123C117.744 29.481 117.678 29.126 117.693 28.77C117.676 28.4116 117.742 28.054 117.885 27.7205C118.028 27.387 118.245 27.085 118.522 26.8341C118.8 26.5832 119.131 26.3891 119.495 26.2642C119.859 26.1394 120.247 26.0866 120.634 26.1094C121.072 26.1024 121.506 26.1826 121.907 26.3447C122.307 26.5069 122.666 26.747 122.957 27.0488L124.293 25.9089C123.818 25.4288 123.235 25.0513 122.584 24.803C121.934 24.5547 121.232 24.4417 120.529 24.4721C117.665 24.4721 115.585 26.265 115.585 28.77C115.585 31.2751 117.666 33.0679 120.492 33.0679C121.793 33.0769 123.065 32.7072 124.127 32.0112V28.6404H122.227V31.0745Z" fill="#8F7FFF"/>
<defs>
<linearGradient id="paint0_linear_7366_10269" x1="8.48758" y1="22.86" x2="25.4303" y2="0.816464" gradientUnits="userSpaceOnUse">
<stop stop-color="#A497FF"/>
<stop offset="1" stop-color="#624BFF"/>
</linearGradient>
</defs>
</svg>
